<?xml version="1.0" encoding="UTF-8" standalone="no"?>
<svg xmlns:rdf="http://www.w3.org/1999/02/22-rdf-syntax-ns#" xmlns="http://www.w3.org/2000/svg" viewBox="0 364 1080 1600" height="100%" width="100%" version="1.1" xmlns:cc="http://creativecommons.org/ns#" xmlns:xlink="http://www.w3.org/1999/xlink" xmlns:dc="http://purl.org/dc/elements/1.1/">
	<defs></defs>
	<metadata>
		<rdf:RDF>
			<cc:Work rdf:about="">
				<dc:format>image/svg+xml</dc:format>
				<dc:type rdf:resource="http://purl.org/dc/dcmitype/StillImage"/>
				<dc:title/>
			</cc:Work>
		</rdf:RDF>
	</metadata>
	<g transform="translate(0,867.63782)">
		<path fill="#805ee7" d="m1230-1140v2460h-1380v-2460h1380z"/>
	</g>
	<g transform="translate(0,840)">
		<path d="M1200,502c-220,127-440,254-660,381-220-128-440-255-660-382,0.103-254,0.206-508,0.308-763,220-127,440-254,660-381,220,127,440,254,660,382-0.103,254-0.206,508-0.308,762z" stroke="#f7f7f7" stroke-linecap="butt" stroke-miterlimit="4" stroke-width="75.00000763" fill="none"/>
	</g>
	<path d="m540,591c-28.6,16.5-57.2,33-85.8,49.5,8.52,14.8,17,29.5,25.6,44.3-49.5,28.6-99,57.1-149,85.7-8.53-14.8-17.1-29.5-25.6-44.3-28.5,16.5-57.1,32.9-85.6,49.4-0.01,33-0.021,66.1-0.031,99.1h51.2c-0.021,57.2-0.042,114-0.062,171h-51.2c-0.01,32.9-0.021,65.9-0.031,98.8,28.6,16.5,57.2,33.1,85.8,49.6,8.53-14.8,17.1-29.5,25.6-44.3,49.5,28.6,99,57.2,148,85.8-8.52,14.8-17,29.5-25.6,44.3,28.5,16.5,57,33,85.5,49.4,28.6-16.5,57.2-33,85.8-49.5-8.52-14.8-17-29.5-25.6-44.3,49.5-28.6,99-57.1,149-85.7,8.53,14.8,17.1,29.5,25.6,44.3,28.5-16.5,57.1-32.9,85.6-49.4,0.01-33,0.021-66.1,0.031-99.1h-51.2c0.021-57.2,0.042-114,0.062-171h51.2c0.01-32.9,0.021-65.9,0.031-98.8-28.6-16.5-57.2-33-85.8-49.6-8.53,14.8-17.1,29.5-25.6,44.3-49.5-28.6-99-57.2-148-85.8,8.53-14.8,17.1-29.5,25.6-44.3-28.5-16.5-57-33-85.6-49.4zm-0.062,148c64,37,128,74,192,111-0.031,74-0.062,148-0.094,222-64.1,36.9-128,73.9-192,111-64-37-128-74-192-111,0.031-74,0.062-148,0.094-222,64.1-37,128-73.9,192-111z" fill="#f7f7f7"/>
	<path fill="#f7f7f7" d="m438,901c34.2-19.7,68.3-39.4,102-59.1,34.1,19.7,68.3,39.5,102,59.2-0.0159,39.4-0.0319,78.9-0.0478,118-34.2,19.7-68.3,39.4-102,59.1-34.1-19.7-68.3-39.5-102-59.2,0.0159-39.4,0.0319-78.9,0.0478-118z"/>
</svg>
